<svg id="kity_svg_6" xmlns="http://www.w3.org/2000/svg" xmlns:xlink="http://www.w3.org/1999/xlink" version="1.1" width="1821" height="442" style="background: rgb(251, 251, 251); visibility: visible;" viewBox="0 0 1821 442"><defs id="kity_defs_7"><linearGradient id="kity_linearGradient_17" x1="0" y1="0" x2="0" y2="1"><stop id="kity_stop_18" offset="0" stop-color="rgb(255, 255, 255)"></stop><stop id="kity_stop_19" offset="1" stop-color="rgb(204, 204, 204)"></stop></linearGradient><marker id="kity_marker_2" orient="auto" refX="6" refY="0" viewBox="-7 -7 14 14" markerWidth="7" markerHeight="7" markerUnits="userSpaceOnUse"><path id="kity_path_3" fill="rgb(123, 115, 191)" stroke="none" d="M6,0A6,6,0,1,1,-6,0A6,6,0,1,1,6,0"></path></marker></defs><g id="kity_g_8"><g id="minder1" text-rendering="optimize-speed"><g id="minder_connect_group1"><path id="kity_path_31" fill="none" stroke="rgb(123, 115, 191)" stroke-width="1" d="M893,208.5A183.5,127,0,0,1,1076.5,81.5"></path><path id="kity_path_33" fill="none" stroke="rgb(123, 115, 191)" stroke-width="1" d="M1148.5,81.5C1151.5,81.5,1151.5,80.5,1154.5,80.5L1611.5,80.5"></path><path id="kity_path_35" fill="none" stroke="rgb(123, 115, 191)" stroke-width="1" d="M1148.5,81.5C1151.5,81.5,1151.5,106.5,1154.5,106.5L1683.5,106.5"></path><path id="kity_path_37" fill="none" stroke="rgb(123, 115, 191)" stroke-width="1" d="M893,208.5A172.5,124,0,0,0,1065.5,332.5"></path><path id="kity_path_39" fill="none" stroke="rgb(123, 115, 191)" stroke-width="1" d="M1164.5,332.5C1156.5,332.5,1156.5,266.5,1148.5,266.5L1203.5,266.5"></path><path id="kity_path_43" fill="none" stroke="rgb(123, 115, 191)" stroke-width="1" d="M1203.5,266.5C1206.5,266.5,1206.5,136.5,1209.5,136.5L1279.5,136.5"></path><path id="kity_path_49" fill="none" stroke="rgb(123, 115, 191)" stroke-width="1" d="M893,208.5A183.5,101,0,0,0,709.5,107.5"></path><path id="kity_path_51" fill="none" stroke="rgb(123, 115, 191)" stroke-width="1" d="M610.5,107.5C607.5,107.5,607.5,41.5,604.5,41.5L533.5,41.5"></path><path id="kity_path_53" fill="none" stroke="rgb(123, 115, 191)" stroke-width="1" d="M610.5,107.5C607.5,107.5,607.5,67.5,604.5,67.5L506.5,67.5"></path><path id="kity_path_55" fill="none" stroke="rgb(123, 115, 191)" stroke-width="1" d="M610.5,107.5C607.5,107.5,607.5,93.5,604.5,93.5L493.5,93.5"></path><path id="kity_path_57" fill="none" stroke="rgb(123, 115, 191)" stroke-width="1" d="M610.5,107.5C607.5,107.5,607.5,119.5,604.5,119.5L482.5,119.5"></path><path id="kity_path_59" fill="none" stroke="rgb(123, 115, 191)" stroke-width="1" d="M610.5,107.5C607.5,107.5,607.5,145.5,604.5,145.5L451.5,145.5"></path><path id="kity_path_61" fill="none" stroke="rgb(123, 115, 191)" stroke-width="1" d="M610.5,107.5C607.5,107.5,607.5,171.5,604.5,171.5L481.5,171.5"></path><path id="kity_path_63" fill="none" stroke="rgb(123, 115, 191)" stroke-width="1" d="M610.5,107.5C607.5,107.5,607.5,197.5,604.5,197.5L446.5,197.5"></path><path id="kity_path_65" fill="none" stroke="rgb(123, 115, 191)" stroke-width="1" d="M893,208.5A125.5,100,0,0,1,767.5,308.5"></path><path id="kity_path_67" fill="none" stroke="rgb(123, 115, 191)" stroke-width="1" d="M682.5,308.5C679.5,308.5,679.5,255.5,676.5,255.5L569.5,255.5"></path><path id="kity_path_69" fill="none" stroke="rgb(123, 115, 191)" stroke-width="1" d="M569.5,255.5C566.5,255.5,566.5,229.5,563.5,229.5L432.5,229.5"></path><path id="kity_path_71" fill="none" stroke="rgb(123, 115, 191)" stroke-width="1" d="M569.5,255.5C566.5,255.5,566.5,281.5,563.5,281.5L492.5,281.5"></path><path id="kity_path_73" fill="none" stroke="rgb(123, 115, 191)" stroke-width="1" d="M492.5,281.5C489.5,281.5,489.5,255.5,486.5,255.5L129.5,255.5"></path><path id="kity_path_75" fill="none" stroke="rgb(123, 115, 191)" stroke-width="1" d="M492.5,281.5C489.5,281.5,489.5,281.5,486.5,281.5L299.5,281.5"></path><path id="kity_path_77" fill="none" stroke="rgb(123, 115, 191)" stroke-width="1" d="M492.5,281.5C489.5,281.5,489.5,307.5,486.5,307.5L311.5,307.5"></path><path id="kity_path_79" fill="none" stroke="rgb(123, 115, 191)" stroke-width="1" d="M311.5,307.5C308.5,307.5,308.5,307.5,305.5,307.5L20.5,307.5"></path><path id="kity_path_81" fill="none" stroke="rgb(123, 115, 191)" stroke-width="1" d="M682.5,308.5C679.5,308.5,679.5,333.5,676.5,333.5L606.5,333.5"></path><path id="kity_path_83" fill="none" stroke="rgb(123, 115, 191)" stroke-width="1" d="M606.5,333.5C603.5,333.5,603.5,333.5,600.5,333.5L495.5,333.5"></path><path id="kity_path_85" fill="none" stroke="rgb(123, 115, 191)" stroke-width="1" d="M682.5,308.5C679.5,308.5,679.5,359.5,676.5,359.5L554.5,359.5"></path><path id="kity_path_87" fill="none" stroke="rgb(123, 115, 191)" stroke-width="1" d="M554.5,359.5C551.5,359.5,551.5,359.5,548.5,359.5L412.5,359.5"></path><path id="kity_path_89" fill="none" stroke="rgb(123, 115, 191)" stroke-width="1" d="M682.5,308.5C679.5,308.5,679.5,385.5,676.5,385.5L608.5,385.5"></path><path id="kity_path_91" fill="none" stroke="rgb(123, 115, 191)" stroke-width="1" d="M608.5,385.5C605.5,385.5,605.5,385.5,602.5,385.5L520.5,385.5"></path><path id="kity_path_279" fill="none" stroke="rgb(123, 115, 191)" stroke-width="1" d="M1164.5,332.5C1167.5,332.5,1167.5,422.5,1170.5,422.5L1236.5,422.5"></path><path id="kity_path_287" fill="none" stroke="rgb(123, 115, 191)" stroke-width="1" d="M1203.5,266.5C1206.5,266.5,1206.5,175.5,1209.5,175.5L1424.5,175.5"></path><path id="kity_path_295" fill="none" stroke="rgb(123, 115, 191)" stroke-width="1" d="M1424.5,175.5C1427.5,175.5,1427.5,162.5,1430.5,162.5L1552.5,162.5"></path><path id="kity_path_303" fill="none" stroke="rgb(123, 115, 191)" stroke-width="1" d="M1424.5,175.5C1427.5,175.5,1427.5,188.5,1430.5,188.5L1600.5,188.5"></path><path id="kity_path_311" fill="none" stroke="rgb(123, 115, 191)" stroke-width="1" d="M1203.5,266.5C1206.5,266.5,1206.5,227.5,1209.5,227.5L1334.5,227.5"></path><path id="kity_path_319" fill="none" stroke="rgb(123, 115, 191)" stroke-width="1" d="M1334.5,227.5C1337.5,227.5,1337.5,240.5,1340.5,240.5L1626.5,240.5"></path><path id="kity_path_327" fill="none" stroke="rgb(123, 115, 191)" stroke-width="1" d="M1203.5,266.5C1206.5,266.5,1206.5,292.5,1209.5,292.5L1361.5,292.5"></path><path id="kity_path_335" fill="none" stroke="rgb(123, 115, 191)" stroke-width="1" d="M1203.5,266.5C1206.5,266.5,1206.5,266.5,1209.5,266.5L1801.5,266.5"></path><path id="kity_path_343" fill="none" stroke="rgb(123, 115, 191)" stroke-width="1" d="M1334.5,227.5C1337.5,227.5,1337.5,214.5,1340.5,214.5L1738.5,214.5"></path><path id="kity_path_351" fill="none" stroke="rgb(123, 115, 191)" stroke-width="1" d="M1203.5,266.5C1206.5,266.5,1206.5,331.5,1209.5,331.5L1348.5,331.5"></path><path id="kity_path_359" fill="none" stroke="rgb(123, 115, 191)" stroke-width="1" d="M1348.5,331.5C1351.5,331.5,1351.5,318.5,1354.5,318.5L1756.5,318.5"></path><path id="kity_path_367" fill="none" stroke="rgb(123, 115, 191)" stroke-width="1" d="M1348.5,331.5C1351.5,331.5,1351.5,344.5,1354.5,344.5L1567.5,344.5"></path><path id="kity_path_375" fill="none" stroke="rgb(123, 115, 191)" stroke-width="1" d="M1203.5,266.5C1206.5,266.5,1206.5,370.5,1209.5,370.5L1625.5,370.5"></path><path id="kity_path_383" fill="none" stroke="rgb(123, 115, 191)" stroke-width="1" d="M1203.5,266.5C1206.5,266.5,1206.5,396.5,1209.5,396.5L1657.5,396.5"></path></g><g id="minder_node1"><path id="node_outline1" fill="rgb(123, 115, 191)" stroke="rgb(123, 115, 191)" d="M730.5,194.5h325a5,5,0,0,1,5,5v18a5,5,0,0,1,-5,5h-325a5,5,0,0,1,-5,-5v-18a5,5,0,0,1,5,-5z" stroke-width="3"></path><g id="node_text1" fill="white"><text id="kity_text_22" text-rendering="inherit" font-size="16" dy=".8em" y="198.09999990463257" x="737.5">Rust( ahead-of-time compiled language)</text></g></g><g id="kity_g_14" display="none"><path id="kity_path_15" fill="rgba(0, 92, 153, 0.5)" stroke="none" d="M1556.5,342.5h398v15h-398z"></path><path id="kity_path_16" fill="none" stroke="rgb(0, 76, 128)" d="M1556.5,342.5L1954.5,342.5" stroke-width="1"></path></g><g id="minder_node2"><g id="node_expander3" style="cursor: pointer;"><path id="kity_path_192" fill="white" stroke="gray" d="M1077.5,81.5A6,6,0,1,1,1065.5,81.5A6,6,0,1,1,1077.5,81.5"></path><path id="kity_path_193" fill="none" stroke="gray" d="M1067,81.5L1076,81.5"></path></g><path id="node_outline4" fill="rgb(239, 238, 246)" stroke="rgb(123, 115, 191)" d="M1081.5,68.5h64a3,3,0,0,1,3,3v20a3,3,0,0,1,-3,3h-64a3,3,0,0,1,-3,-3v-20a3,3,0,0,1,3,-3z" stroke-width="1"></path><g id="node_text4" fill="black"><text id="kity_text_97" text-rendering="inherit" font-size="14" dy=".8em" y="72.40000009536743" x="1098.5">Pros</text></g></g><g id="minder_node3"><g id="node_expander1" style="cursor: pointer;" display="none"><path id="kity_path_186" fill="white" stroke="gray" d="M1164.5,68.5A6,6,0,1,1,1152.5,68.5A6,6,0,1,1,1164.5,68.5"></path><path id="kity_path_187" fill="none" stroke="gray"></path></g><path id="node_outline2" fill="none" stroke="none" d="M1169.5,59.5h437a5,5,0,0,1,5,5v8a5,5,0,0,1,-5,5h-437a5,5,0,0,1,-5,-5v-8a5,5,0,0,1,5,-5z"></path><g id="node_text2" fill="black"><text id="kity_text_93" text-rendering="inherit" font-size="12" dy=".8em" y="60.700000047683716" x="1169.5">传统的Low-Level方面的bug，往往依赖大量的测试及 Code-Review来发现并修正</text></g></g><g id="minder_node4"><g id="node_expander2" style="cursor: pointer;" display="none"><path id="kity_path_189" fill="white" stroke="gray" d="M1164.5,94.5A6,6,0,1,1,1152.5,94.5A6,6,0,1,1,1164.5,94.5"></path><path id="kity_path_190" fill="none" stroke="gray"></path></g><path id="node_outline3" fill="none" stroke="none" d="M1169.5,85.5h509a5,5,0,0,1,5,5v8a5,5,0,0,1,-5,5h-509a5,5,0,0,1,-5,-5v-8a5,5,0,0,1,5,-5z"></path><g id="node_text3" fill="black"><text id="kity_text_95" text-rendering="inherit" font-size="12" dy=".8em" y="86.70000004768372" x="1169.5">Rust在编译阶段就能杜绝很多的Low-level code 容易产生的bug，这其中包含了并发方面的bug</text></g></g><g id="minder_node5"><g id="node_expander9" style="cursor: pointer;"><path id="kity_path_210" fill="white" stroke="gray" d="M1066.5,332.5A6,6,0,1,1,1054.5,332.5A6,6,0,1,1,1066.5,332.5"></path><path id="kity_path_211" fill="none" stroke="gray" d="M1056,332.5L1065,332.5"></path></g><path id="node_outline10" fill="rgb(239, 238, 246)" stroke="rgb(123, 115, 191)" d="M1070.5,319.5h91a3,3,0,0,1,3,3v20a3,3,0,0,1,-3,3h-91a3,3,0,0,1,-3,-3v-20a3,3,0,0,1,3,-3z" stroke-width="1"></path><g id="node_text10" fill="black"><text id="kity_text_109" text-rendering="inherit" font-size="14" dy=".8em" y="323.40000009536743" x="1087.5">开发工具</text></g></g><g id="minder_node6"><g id="node_expander8" style="cursor: pointer;"><path id="kity_path_207" fill="white" stroke="gray" d="M1158.5,254.5A6,6,0,1,1,1146.5,254.5A6,6,0,1,1,1158.5,254.5"></path><path id="kity_path_208" fill="none" stroke="gray" d="M1148,254.5L1157,254.5"></path></g><path id="node_outline9" fill="none" stroke="none" d="M1163.5,245.5h35a5,5,0,0,1,5,5v8a5,5,0,0,1,-5,5h-35a5,5,0,0,1,-5,-5v-8a5,5,0,0,1,5,-5z" stroke-width="3"></path><g id="node_text9" fill="black"><text id="kity_text_107" text-rendering="inherit" font-size="12" dy=".8em" y="246.70000004768372" x="1163.5">Cargo</text></g></g><g id="minder_node8"><g id="node_expander5" style="cursor: pointer;" display="none"><path id="kity_path_198" fill="white" stroke="gray" d="M1219.5,124.5A6,6,0,1,1,1207.5,124.5A6,6,0,1,1,1219.5,124.5"></path><path id="kity_path_199" fill="none" stroke="gray"></path></g><path id="node_outline6" fill="none" stroke="none" d="M1224.5,115.5h50a5,5,0,0,1,5,5v8a5,5,0,0,1,-5,5h-50a5,5,0,0,1,-5,-5v-8a5,5,0,0,1,5,-5z" stroke-width="3"></path><g id="node_text6" fill="black"><text id="kity_text_101" text-rendering="inherit" font-size="12" dy=".8em" y="116.70000004768372" x="1224.5">编译构建</text></g></g><g id="minder_node11"><g id="node_expander17" style="cursor: pointer;"><path id="kity_path_234" fill="white" stroke="gray" d="M720.5,107.5A6,6,0,1,1,708.5,107.5A6,6,0,1,1,720.5,107.5"></path><path id="kity_path_235" fill="none" stroke="gray" d="M710,107.5L719,107.5"></path></g><path id="node_outline18" fill="rgb(239, 238, 246)" stroke="rgb(123, 115, 191)" d="M613.5,94.5h91a3,3,0,0,1,3,3v20a3,3,0,0,1,-3,3h-91a3,3,0,0,1,-3,-3v-20a3,3,0,0,1,3,-3z" stroke-width="1"></path><g id="node_text18" fill="black"><text id="kity_text_125" text-rendering="inherit" font-size="14" dy=".8em" y="98.40000009536743" x="630.5">应用场景</text></g></g><g id="minder_node12"><g id="node_expander10" style="cursor: pointer;" display="none"><path id="kity_path_213" fill="white" stroke="gray" d="M606.5,29.5A6,6,0,1,1,594.5,29.5A6,6,0,1,1,606.5,29.5"></path><path id="kity_path_214" fill="none" stroke="gray"></path></g><path id="node_outline11" fill="none" stroke="none" d="M538.5,20.5h51a5,5,0,0,1,5,5v8a5,5,0,0,1,-5,5h-51a5,5,0,0,1,-5,-5v-8a5,5,0,0,1,5,-5z"></path><g id="node_text11" fill="black"><text id="kity_text_111" text-rendering="inherit" font-size="12" dy=".8em" y="21.700000047683716" x="538.5">CLI Tools</text></g></g><g id="minder_node13"><g id="node_expander11" style="cursor: pointer;" display="none"><path id="kity_path_216" fill="white" stroke="gray" d="M606.5,55.5A6,6,0,1,1,594.5,55.5A6,6,0,1,1,606.5,55.5"></path><path id="kity_path_217" fill="none" stroke="gray"></path></g><path id="node_outline12" fill="none" stroke="none" d="M511.5,46.5h78a5,5,0,0,1,5,5v8a5,5,0,0,1,-5,5h-78a5,5,0,0,1,-5,-5v-8a5,5,0,0,1,5,-5z"></path><g id="node_text12" fill="black"><text id="kity_text_113" text-rendering="inherit" font-size="12" dy=".8em" y="47.700000047683716" x="511.5">Web Services</text></g></g><g id="minder_node14"><g id="node_expander12" style="cursor: pointer;" display="none"><path id="kity_path_219" fill="white" stroke="gray" d="M606.5,81.5A6,6,0,1,1,594.5,81.5A6,6,0,1,1,606.5,81.5"></path><path id="kity_path_220" fill="none" stroke="gray"></path></g><path id="node_outline13" fill="none" stroke="none" d="M498.5,72.5h91a5,5,0,0,1,5,5v8a5,5,0,0,1,-5,5h-91a5,5,0,0,1,-5,-5v-8a5,5,0,0,1,5,-5z"></path><g id="node_text13" fill="black"><text id="kity_text_115" text-rendering="inherit" font-size="12" dy=".8em" y="73.70000004768372" x="498.5">DevOps Tooling</text></g></g><g id="minder_node15"><g id="node_expander13" style="cursor: pointer;" display="none"><path id="kity_path_222" fill="white" stroke="gray" d="M606.5,107.5A6,6,0,1,1,594.5,107.5A6,6,0,1,1,606.5,107.5"></path><path id="kity_path_223" fill="none" stroke="gray"></path></g><path id="node_outline14" fill="none" stroke="none" d="M487.5,98.5h102a5,5,0,0,1,5,5v8a5,5,0,0,1,-5,5h-102a5,5,0,0,1,-5,-5v-8a5,5,0,0,1,5,-5z"></path><g id="node_text14" fill="black"><text id="kity_text_117" text-rendering="inherit" font-size="12" dy=".8em" y="99.70000004768372" x="487.5">Embeded Devices</text></g></g><g id="minder_node16"><g id="node_expander14" style="cursor: pointer;" display="none"><path id="kity_path_225" fill="white" stroke="gray" d="M606.5,133.5A6,6,0,1,1,594.5,133.5A6,6,0,1,1,606.5,133.5"></path><path id="kity_path_226" fill="none" stroke="gray"></path></g><path id="node_outline15" fill="none" stroke="none" d="M456.5,124.5h133a5,5,0,0,1,5,5v8a5,5,0,0,1,-5,5h-133a5,5,0,0,1,-5,-5v-8a5,5,0,0,1,5,-5z"></path><g id="node_text15" fill="black"><text id="kity_text_119" text-rendering="inherit" font-size="12" dy=".8em" y="125.70000004768372" x="456.5">Audio &amp; Video Analisis</text></g></g><g id="minder_node17"><g id="node_expander15" style="cursor: pointer;" display="none"><path id="kity_path_228" fill="white" stroke="gray" d="M606.5,159.5A6,6,0,1,1,594.5,159.5A6,6,0,1,1,606.5,159.5"></path><path id="kity_path_229" fill="none" stroke="gray"></path></g><path id="node_outline16" fill="none" stroke="none" d="M486.5,150.5h103a5,5,0,0,1,5,5v8a5,5,0,0,1,-5,5h-103a5,5,0,0,1,-5,-5v-8a5,5,0,0,1,5,-5z"></path><g id="node_text16" fill="black"><text id="kity_text_121" text-rendering="inherit" font-size="12" dy=".8em" y="151.70000004768372" x="486.5">Machine Learning</text></g></g><g id="minder_node18"><g id="node_expander16" style="cursor: pointer;" display="none"><path id="kity_path_231" fill="white" stroke="gray" d="M606.5,185.5A6,6,0,1,1,594.5,185.5A6,6,0,1,1,606.5,185.5"></path><path id="kity_path_232" fill="none" stroke="gray"></path></g><path id="node_outline17" fill="none" stroke="none" d="M451.5,176.5h138a5,5,0,0,1,5,5v8a5,5,0,0,1,-5,5h-138a5,5,0,0,1,-5,-5v-8a5,5,0,0,1,5,-5z"></path><g id="node_text17" fill="black"><text id="kity_text_123" text-rendering="inherit" font-size="12" dy=".8em" y="177.70000004768372" x="451.5">浏览器 核心开发--Firefox</text></g></g><g id="minder_node19"><g id="node_expander31" style="cursor: pointer;"><path id="kity_path_276" fill="white" stroke="gray" d="M778.5,308.5A6,6,0,1,1,766.5,308.5A6,6,0,1,1,778.5,308.5"></path><path id="kity_path_277" fill="none" stroke="gray" d="M768,308.5L777,308.5"></path></g><path id="node_outline32" fill="rgb(239, 238, 246)" stroke="rgb(123, 115, 191)" d="M685.5,295.5h77a3,3,0,0,1,3,3v20a3,3,0,0,1,-3,3h-77a3,3,0,0,1,-3,-3v-20a3,3,0,0,1,3,-3z" stroke-width="1"></path><g id="node_text32" fill="black"><text id="kity_text_153" text-rendering="inherit" font-size="14" dy=".8em" y="299.40000009536743" x="702.5">rustup</text></g></g><g id="minder_node20"><g id="node_expander24" style="cursor: pointer;"><path id="kity_path_255" fill="white" stroke="gray" d="M678.5,243.5A6,6,0,1,1,666.5,243.5A6,6,0,1,1,678.5,243.5"></path><path id="kity_path_256" fill="none" stroke="gray" d="M668,243.5L677,243.5"></path></g><path id="node_outline25" fill="none" stroke="none" d="M574.5,234.5h87a5,5,0,0,1,5,5v8a5,5,0,0,1,-5,5h-87a5,5,0,0,1,-5,-5v-8a5,5,0,0,1,5,-5z"></path><g id="node_text25" fill="black"><text id="kity_text_139" text-rendering="inherit" font-size="12" dy=".8em" y="235.70000004768372" x="574.5">rustup安装Rust</text></g></g><g id="minder_node21"><g id="node_expander18" style="cursor: pointer;" display="none"><path id="kity_path_237" fill="white" stroke="gray" d="M565.5,217.5A6,6,0,1,1,553.5,217.5A6,6,0,1,1,565.5,217.5"></path><path id="kity_path_238" fill="none" stroke="gray"></path></g><path id="node_outline19" fill="none" stroke="none" d="M437.5,208.5h111a5,5,0,0,1,5,5v8a5,5,0,0,1,-5,5h-111a5,5,0,0,1,-5,-5v-8a5,5,0,0,1,5,-5z"></path><g id="node_text19" fill="black"><text id="kity_text_127" text-rendering="inherit" font-size="12" dy=".8em" y="209.70000004768372" x="437.5">rust 工具链的安装器</text></g></g><g id="minder_node22"><g id="node_expander23" style="cursor: pointer;"><path id="kity_path_252" fill="white" stroke="gray" d="M565.5,269.5A6,6,0,1,1,553.5,269.5A6,6,0,1,1,565.5,269.5"></path><path id="kity_path_253" fill="none" stroke="gray" d="M555,269.5L564,269.5"></path></g><path id="node_outline24" fill="none" stroke="none" d="M497.5,260.5h51a5,5,0,0,1,5,5v8a5,5,0,0,1,-5,5h-51a5,5,0,0,1,-5,-5v-8a5,5,0,0,1,5,-5z" stroke-width="3"></path><g id="node_text24" fill="black"><text id="kity_text_137" text-rendering="inherit" font-size="12" dy=".8em" y="261.7000000476837" x="497.5">安装Rust</text></g></g><g id="minder_node23"><g id="node_expander19" style="cursor: pointer;" display="none"><path id="kity_path_240" fill="white" stroke="gray" d="M488.5,243.5A6,6,0,1,1,476.5,243.5A6,6,0,1,1,488.5,243.5"></path><path id="kity_path_241" fill="none" stroke="gray"></path></g><path id="node_outline20" fill="none" stroke="none" d="M134.5,234.5h337a5,5,0,0,1,5,5v8a5,5,0,0,1,-5,5h-337a5,5,0,0,1,-5,-5v-8a5,5,0,0,1,5,-5z"></path><g id="node_text20" fill="black"><text id="kity_text_129" text-rendering="inherit" font-size="12" dy=".8em" y="235.70000004768372" x="134.5">$ curl --proto '=https' --tlsv1.3 https://sh.rustup.rs -sSf | sh</text></g></g><g id="minder_node24"><g id="node_expander20" style="cursor: pointer;" display="none"><path id="kity_path_243" fill="white" stroke="gray" d="M488.5,269.5A6,6,0,1,1,476.5,269.5A6,6,0,1,1,488.5,269.5"></path><path id="kity_path_244" fill="none" stroke="gray"></path></g><path id="node_outline21" fill="none" stroke="none" d="M304.5,260.5h167a5,5,0,0,1,5,5v8a5,5,0,0,1,-5,5h-167a5,5,0,0,1,-5,-5v-8a5,5,0,0,1,5,-5z"></path><g id="node_text21" fill="black"><text id="kity_text_131" text-rendering="inherit" font-size="12" dy=".8em" y="261.7000000476837" x="304.5">安装linker: 如果系统缺少linker</text></g></g><g id="minder_node25"><g id="node_expander22" style="cursor: pointer;"><path id="kity_path_249" fill="white" stroke="gray" d="M488.5,295.5A6,6,0,1,1,476.5,295.5A6,6,0,1,1,488.5,295.5"></path><path id="kity_path_250" fill="none" stroke="gray" d="M478,295.5L487,295.5"></path></g><path id="node_outline23" fill="none" stroke="none" d="M316.5,286.5h155a5,5,0,0,1,5,5v8a5,5,0,0,1,-5,5h-155a5,5,0,0,1,-5,-5v-8a5,5,0,0,1,5,-5z"></path><g id="node_text23" fill="black"><text id="kity_text_135" text-rendering="inherit" font-size="12" dy=".8em" y="287.7000000476837" x="316.5">检查版本：$ rustc --version</text></g></g><g id="minder_node26"><g id="node_expander21" style="cursor: pointer;" display="none"><path id="kity_path_246" fill="white" stroke="gray" d="M307.5,295.5A6,6,0,1,1,295.5,295.5A6,6,0,1,1,307.5,295.5"></path><path id="kity_path_247" fill="none" stroke="gray"></path></g><path id="node_outline22" fill="none" stroke="none" d="M25.5,286.5h265a5,5,0,0,1,5,5v8a5,5,0,0,1,-5,5h-265a5,5,0,0,1,-5,-5v-8a5,5,0,0,1,5,-5z"></path><g id="node_text22" fill="black"><text id="kity_text_133" text-rendering="inherit" font-size="12" dy=".8em" y="287.7000000476837" x="25.5">版本格式：rustc x.y.z (abcabcabc yyyy-mm-dd)</text></g></g><g id="minder_node27"><g id="node_expander26" style="cursor: pointer;"><path id="kity_path_261" fill="white" stroke="gray" d="M678.5,321.5A6,6,0,1,1,666.5,321.5A6,6,0,1,1,678.5,321.5"></path><path id="kity_path_262" fill="none" stroke="gray" d="M668,321.5L677,321.5"></path></g><path id="node_outline27" fill="none" stroke="none" d="M611.5,312.5h50a5,5,0,0,1,5,5v8a5,5,0,0,1,-5,5h-50a5,5,0,0,1,-5,-5v-8a5,5,0,0,1,5,-5z"></path><g id="node_text27" fill="black"><text id="kity_text_143" text-rendering="inherit" font-size="12" dy=".8em" y="313.7000000476837" x="611.5">升级Rust</text></g></g><g id="minder_node28"><g id="node_expander25" style="cursor: pointer;" display="none"><path id="kity_path_258" fill="white" stroke="gray" d="M602.5,321.5A6,6,0,1,1,590.5,321.5A6,6,0,1,1,602.5,321.5"></path><path id="kity_path_259" fill="none" stroke="gray"></path></g><path id="node_outline26" fill="none" stroke="none" d="M500.5,312.5h85a5,5,0,0,1,5,5v8a5,5,0,0,1,-5,5h-85a5,5,0,0,1,-5,-5v-8a5,5,0,0,1,5,-5z"></path><g id="node_text26" fill="black"><text id="kity_text_141" text-rendering="inherit" font-size="12" dy=".8em" y="313.7000000476837" x="500.5">&#xa0;rustup update</text></g></g><g id="minder_node29"><g id="node_expander28" style="cursor: pointer;"><path id="kity_path_267" fill="white" stroke="gray" d="M678.5,347.5A6,6,0,1,1,666.5,347.5A6,6,0,1,1,678.5,347.5"></path><path id="kity_path_268" fill="none" stroke="gray" d="M668,347.5L677,347.5"></path></g><path id="node_outline29" fill="none" stroke="none" d="M559.5,338.5h102a5,5,0,0,1,5,5v8a5,5,0,0,1,-5,5h-102a5,5,0,0,1,-5,-5v-8a5,5,0,0,1,5,-5z"></path><g id="node_text29" fill="black"><text id="kity_text_147" text-rendering="inherit" font-size="12" dy=".8em" y="339.7000000476837" x="559.5">卸载rustup &amp; rust</text></g></g><g id="minder_node30"><g id="node_expander27" style="cursor: pointer;" display="none"><path id="kity_path_264" fill="white" stroke="gray" d="M550.5,347.5A6,6,0,1,1,538.5,347.5A6,6,0,1,1,550.5,347.5"></path><path id="kity_path_265" fill="none" stroke="gray"></path></g><path id="node_outline28" fill="none" stroke="none" d="M417.5,338.5h116a5,5,0,0,1,5,5v8a5,5,0,0,1,-5,5h-116a5,5,0,0,1,-5,-5v-8a5,5,0,0,1,5,-5z"></path><g id="node_text28" fill="black"><text id="kity_text_145" text-rendering="inherit" font-size="12" dy=".8em" y="339.7000000476837" x="417.5">&#xa0;rustup self uninstall</text></g></g><g id="minder_node31"><g id="node_expander30" style="cursor: pointer;"><path id="kity_path_273" fill="white" stroke="gray" d="M678.5,373.5A6,6,0,1,1,666.5,373.5A6,6,0,1,1,678.5,373.5"></path><path id="kity_path_274" fill="none" stroke="gray" d="M668,373.5L677,373.5"></path></g><path id="node_outline31" fill="none" stroke="none" d="M613.5,364.5h48a5,5,0,0,1,5,5v8a5,5,0,0,1,-5,5h-48a5,5,0,0,1,-5,-5v-8a5,5,0,0,1,5,-5z"></path><g id="node_text31" fill="black"><text id="kity_text_151" text-rendering="inherit" font-size="12" dy=".8em" y="365.7000000476837" x="613.5">离线文档</text></g></g><g id="minder_node32"><g id="node_expander29" style="cursor: pointer;" display="none"><path id="kity_path_270" fill="white" stroke="gray" d="M604.5,373.5A6,6,0,1,1,592.5,373.5A6,6,0,1,1,604.5,373.5"></path><path id="kity_path_271" fill="none" stroke="gray"></path></g><path id="node_outline30" fill="none" stroke="none" d="M525.5,364.5h62a5,5,0,0,1,5,5v8a5,5,0,0,1,-5,5h-62a5,5,0,0,1,-5,-5v-8a5,5,0,0,1,5,-5z"></path><g id="node_text30" fill="black"><text id="kity_text_149" text-rendering="inherit" font-size="12" dy=".8em" y="365.7000000476837" x="525.5">rustup doc</text></g></g><g id="minder_node33"><g id="node_expander32" style="cursor: pointer;" display="none"><path id="kity_path_284" fill="white" stroke="gray" d="M1180.5,410.5A6,6,0,1,1,1168.5,410.5A6,6,0,1,1,1180.5,410.5"></path><path id="kity_path_285" fill="none" stroke="gray"></path></g><path id="node_outline33" fill="none" stroke="none" d="M1185.5,401.5h46a5,5,0,0,1,5,5v8a5,5,0,0,1,-5,5h-46a5,5,0,0,1,-5,-5v-8a5,5,0,0,1,5,-5z" stroke-width="3"></path><g id="node_text33" fill="black"><text id="kity_text_281" text-rendering="inherit" font-size="12" dy=".8em" y="402.7000000476837" x="1185.5">Rustfmt</text></g></g><g id="minder_node34"><g id="node_expander33" style="cursor: pointer;"><path id="kity_path_292" fill="white" stroke="gray" d="M1219.5,163.5A6,6,0,1,1,1207.5,163.5A6,6,0,1,1,1219.5,163.5"></path><path id="kity_path_293" fill="none" stroke="gray" d="M1209,163.5L1218,163.5"></path></g><path id="node_outline34" fill="none" stroke="none" d="M1224.5,154.5h195a5,5,0,0,1,5,5v8a5,5,0,0,1,-5,5h-195a5,5,0,0,1,-5,-5v-8a5,5,0,0,1,5,-5z" stroke-width="3"></path><g id="node_text34" fill="black"><text id="kity_text_289" text-rendering="inherit" font-size="12" dy=".8em" y="155.70000004768372" x="1224.5">cargo new ：创建项目或叫package</text></g></g><g id="minder_node35"><g id="node_expander34" style="cursor: pointer;" display="none"><path id="kity_path_300" fill="white" stroke="gray" d="M1440.5,150.5A6,6,0,1,1,1428.5,150.5A6,6,0,1,1,1440.5,150.5"></path><path id="kity_path_301" fill="none" stroke="gray"></path></g><path id="node_outline35" fill="none" stroke="none" d="M1445.5,141.5h102a5,5,0,0,1,5,5v8a5,5,0,0,1,-5,5h-102a5,5,0,0,1,-5,-5v-8a5,5,0,0,1,5,-5z" stroke-width="3"></path><g id="node_text35" fill="black"><text id="kity_text_297" text-rendering="inherit" font-size="12" dy=".8em" y="142.70000004768372" x="1445.5">源码必须在src目录</text></g></g><g id="minder_node36"><g id="node_expander35" style="cursor: pointer;" display="none"><path id="kity_path_308" fill="white" stroke="gray" d="M1440.5,176.5A6,6,0,1,1,1428.5,176.5A6,6,0,1,1,1440.5,176.5"></path><path id="kity_path_309" fill="none" stroke="gray"></path></g><path id="node_outline36" fill="none" stroke="none" d="M1445.5,167.5h150a5,5,0,0,1,5,5v8a5,5,0,0,1,-5,5h-150a5,5,0,0,1,-5,-5v-8a5,5,0,0,1,5,-5z" stroke-width="3"></path><g id="node_text36" fill="black"><text id="kity_text_305" text-rendering="inherit" font-size="12" dy=".8em" y="168.70000004768372" x="1445.5">必须有Cargo.toml配置文件</text></g></g><g id="minder_node37"><g id="node_expander36" style="cursor: pointer;"><path id="kity_path_316" fill="white" stroke="gray" d="M1219.5,215.5A6,6,0,1,1,1207.5,215.5A6,6,0,1,1,1219.5,215.5"></path><path id="kity_path_317" fill="none" stroke="gray" d="M1209,215.5L1218,215.5"></path></g><path id="node_outline37" fill="none" stroke="none" d="M1224.5,206.5h105a5,5,0,0,1,5,5v8a5,5,0,0,1,-5,5h-105a5,5,0,0,1,-5,-5v-8a5,5,0,0,1,5,-5z" stroke-width="3"></path><g id="node_text37" fill="black"><text id="kity_text_313" text-rendering="inherit" font-size="12" dy=".8em" y="207.70000004768372" x="1224.5">cargo build：构建&#xa0;</text></g></g><g id="minder_node38" opacity="1"><g id="node_expander37" style="cursor: pointer;" display="none"><path id="kity_path_324" fill="white" stroke="gray" d="M1350.5,228.5A6,6,0,1,1,1338.5,228.5A6,6,0,1,1,1350.5,228.5"></path><path id="kity_path_325" fill="none" stroke="gray"></path></g><path id="node_outline38" fill="none" stroke="none" d="M1355.5,219.5h266a5,5,0,0,1,5,5v8a5,5,0,0,1,-5,5h-266a5,5,0,0,1,-5,-5v-8a5,5,0,0,1,5,-5z" stroke-width="3"></path><g id="node_text38" fill="black"><text id="kity_text_321" text-rendering="inherit" font-size="12" dy=".8em" y="220.70000004768372" x="1355.5">第一次运行cargo build时会生成 .cargo-lock文件</text></g></g><g id="minder_node39"><g id="node_expander38" style="cursor: pointer;" display="none"><path id="kity_path_332" fill="white" stroke="gray" d="M1219.5,280.5A6,6,0,1,1,1207.5,280.5A6,6,0,1,1,1219.5,280.5"></path><path id="kity_path_333" fill="none" stroke="gray"></path></g><path id="node_outline39" fill="none" stroke="none" d="M1224.5,271.5h132a5,5,0,0,1,5,5v8a5,5,0,0,1,-5,5h-132a5,5,0,0,1,-5,-5v-8a5,5,0,0,1,5,-5z" stroke-width="3"></path><g id="node_text39" fill="black"><text id="kity_text_329" text-rendering="inherit" font-size="12" dy=".8em" y="272.7000000476837" x="1224.5">cargo run， 构建并运行</text></g></g><g id="minder_node40"><g id="node_expander39" style="cursor: pointer;" display="none"><path id="kity_path_340" fill="white" stroke="gray" d="M1219.5,254.5A6,6,0,1,1,1207.5,254.5A6,6,0,1,1,1219.5,254.5"></path><path id="kity_path_341" fill="none" stroke="gray"></path></g><path id="node_outline40" fill="none" stroke="none" d="M1224.5,245.5h572a5,5,0,0,1,5,5v8a5,5,0,0,1,-5,5h-572a5,5,0,0,1,-5,-5v-8a5,5,0,0,1,5,-5z" stroke-width="3"></path><g id="node_text40" fill="black"><text id="kity_text_337" text-rendering="inherit" font-size="12" dy=".8em" y="246.70000004768372" x="1224.5">cargo check: 编译但不产生可执行文件，速度比 cargo build 快， 常常用来快速检查代码是否可以编译通过</text></g></g><g id="minder_node41"><g id="node_expander40" style="cursor: pointer;" display="none"><path id="kity_path_348" fill="white" stroke="gray" d="M1350.5,202.5A6,6,0,1,1,1338.5,202.5A6,6,0,1,1,1350.5,202.5"></path><path id="kity_path_349" fill="none" stroke="gray"></path></g><path id="node_outline41" fill="none" stroke="none" d="M1355.5,193.5h378a5,5,0,0,1,5,5v8a5,5,0,0,1,-5,5h-378a5,5,0,0,1,-5,-5v-8a5,5,0,0,1,5,-5z" stroke-width="3"></path><g id="node_text41" fill="black"><text id="kity_text_345" text-rendering="inherit" font-size="12" dy=".8em" y="194.70000004768372" x="1355.5">&#xa0;会在target/debug目录下生成可执行文件，因默认构建是 debug 构建</text></g></g><g id="kity_g_12" display="none"><path id="kity_path_13" fill="none" stroke="rgb(66, 94, 112)" d="M1561.5,315.5h388a5,5,0,0,1,5,5v12a5,5,0,0,1,-5,5h-388a5,5,0,0,1,-5,-5v-12a5,5,0,0,1,5,-5z" stroke-width="5"></path></g><g id="minder_node42"><g id="node_expander41" style="cursor: pointer;"><path id="kity_path_356" fill="white" stroke="gray" d="M1219.5,319.5A6,6,0,1,1,1207.5,319.5A6,6,0,1,1,1219.5,319.5"></path><path id="kity_path_357" fill="none" stroke="gray" d="M1209,319.5L1218,319.5"></path></g><path id="node_outline42" fill="none" stroke="none" d="M1224.5,310.5h119a5,5,0,0,1,5,5v8a5,5,0,0,1,-5,5h-119a5,5,0,0,1,-5,-5v-8a5,5,0,0,1,5,-5z" stroke-width="3"></path><g id="node_text42" fill="black"><text id="kity_text_353" text-rendering="inherit" font-size="12" dy=".8em" y="311.7000000476837" x="1224.5">cargo build --release</text></g></g><g id="minder_node43"><g id="node_expander42" style="cursor: pointer;" display="none"><path id="kity_path_364" fill="white" stroke="gray" d="M1364.5,306.5A6,6,0,1,1,1352.5,306.5A6,6,0,1,1,1364.5,306.5"></path><path id="kity_path_365" fill="none" stroke="gray"></path></g><path id="node_outline43" fill="none" stroke="none" d="M1369.5,297.5h382a5,5,0,0,1,5,5v8a5,5,0,0,1,-5,5h-382a5,5,0,0,1,-5,-5v-8a5,5,0,0,1,5,-5z" stroke-width="3"></path><g id="node_text43" fill="black"><text id="kity_text_361" text-rendering="inherit" font-size="12" dy=".8em" y="298.7000000476837" x="1369.5">生成release版本可执行文件，release版本带有优化项，通常编译比较慢</text></g></g><g id="minder_node44"><g id="node_expander43" style="cursor: pointer;" display="none"><path id="kity_path_372" fill="white" stroke="gray" d="M1364.5,332.5A6,6,0,1,1,1352.5,332.5A6,6,0,1,1,1364.5,332.5"></path><path id="kity_path_373" fill="none" stroke="gray"></path></g><path id="node_outline44" fill="none" stroke="none" d="M1369.5,323.5h193a5,5,0,0,1,5,5v8a5,5,0,0,1,-5,5h-193a5,5,0,0,1,-5,-5v-8a5,5,0,0,1,5,-5z" stroke-width="3"></path><g id="node_text44" fill="black"><text id="kity_text_369" text-rendering="inherit" font-size="12" dy=".8em" y="324.7000000476837" x="1369.5">可执行文件位于 target/release目录</text></g></g><g id="minder_node45"><g id="node_expander44" style="cursor: pointer;" display="none"><path id="kity_path_380" fill="white" stroke="gray" d="M1219.5,358.5A6,6,0,1,1,1207.5,358.5A6,6,0,1,1,1219.5,358.5"></path><path id="kity_path_381" fill="none" stroke="gray"></path></g><path id="node_outline45" fill="none" stroke="none" d="M1224.5,349.5h396a5,5,0,0,1,5,5v8a5,5,0,0,1,-5,5h-396a5,5,0,0,1,-5,-5v-8a5,5,0,0,1,5,-5z" stroke-width="3"></path><g id="node_text45" fill="black"><text id="kity_text_377" text-rendering="inherit" font-size="12" dy=".8em" y="350.7000000476837" x="1224.5">cargo update: 依赖更新，默认不使用update则cargo 走 .cargo-lock文件</text></g></g><g id="minder_node46"><g id="node_expander45" style="cursor: pointer;" display="none"><path id="kity_path_388" fill="white" stroke="gray" d="M1219.5,384.5A6,6,0,1,1,1207.5,384.5A6,6,0,1,1,1219.5,384.5"></path><path id="kity_path_389" fill="none" stroke="gray"></path></g><path id="node_outline46" fill="none" stroke="none" d="M1224.5,375.5h428a5,5,0,0,1,5,5v8a5,5,0,0,1,-5,5h-428a5,5,0,0,1,-5,-5v-8a5,5,0,0,1,5,-5z" stroke-width="3"></path><g id="node_text46" fill="black"><text id="kity_text_385" text-rendering="inherit" font-size="12" dy=".8em" y="376.7000000476837" x="1224.5">cargo doc --open： 打开当前项目文档，其中文档包含了项目依赖项的使用文档</text></g></g></g></g></svg>